<svg width="31" height="20" viewBox="0 0 31 20" fill="none" xmlns="http://www.w3.org/2000/svg">
<path d="M15.7362 17.3919C15.7362 16.5921 16.3783 15.9513 17.1793 15.9513C17.9804 15.9513 18.62 16.5921 18.62 17.3919C18.6206 17.5814 18.5838 17.769 18.5117 17.9442C18.4395 18.1193 18.3334 18.2785 18.1996 18.4125C18.0657 18.5465 17.9066 18.6527 17.7315 18.725C17.5564 18.7973 17.3688 18.8343 17.1793 18.8338C16.9898 18.8346 16.802 18.7979 16.6267 18.7259C16.4514 18.6538 16.2921 18.5477 16.158 18.4138C16.0238 18.2799 15.9175 18.1208 15.8451 17.9456C15.7727 17.7705 15.7357 17.5815 15.7362 17.3919ZM21.6031 17.3932C21.6031 16.5921 22.2452 15.9501 23.045 15.9501C23.8448 15.9501 24.4868 16.5921 24.4868 17.3919C24.4868 18.1917 23.8448 18.8338 23.0462 18.8338C22.8567 18.8346 22.6688 18.7979 22.4935 18.7259C22.3182 18.6538 22.1589 18.5477 22.0248 18.4138C21.8907 18.2799 21.7844 18.1208 21.712 17.9456C21.6396 17.7705 21.6026 17.5827 21.6031 17.3932ZM8.00399 17.3932C8.00399 16.5921 8.64607 15.9501 9.44587 15.9501C10.2457 15.9501 10.8865 16.5921 10.8865 17.3919C10.8865 18.1917 10.2457 18.8338 9.44587 18.8338C9.25644 18.8345 9.06875 18.7977 8.8936 18.7255C8.71845 18.6533 8.55929 18.5473 8.42529 18.4134C8.29128 18.2795 8.18507 18.1204 8.11277 17.9453C8.04047 17.7703 8.0035 17.5826 8.00399 17.3932ZM2.13714 17.3932C2.13714 16.5921 2.77921 15.9501 3.57901 15.9501C4.37881 15.9501 5.02089 16.5921 5.02089 17.3919C5.02154 17.5815 4.9847 17.7693 4.91247 17.9445C4.84024 18.1197 4.73406 18.2789 4.60004 18.413C4.46601 18.547 4.3068 18.6532 4.13157 18.7254C3.95634 18.7976 3.76855 18.8345 3.57901 18.8338C3.38969 18.8343 3.20213 18.7974 3.02712 18.7251C2.85212 18.6529 2.69311 18.5468 2.55923 18.4129C2.42536 18.2791 2.31926 18.1201 2.24704 17.9451C2.17481 17.77 2.13664 17.5825 2.13714 17.3932ZM13.9988 14.8447H12.7444V19.8907H13.9988V14.8447ZM5.01095 19.8907H6.2653V14.8447H5.01095V15.2496C4.57325 14.9463 4.05318 14.7842 3.52064 14.7851C2.07752 14.7851 0.912598 15.95 0.912598 17.3932C0.912598 18.8437 2.07752 20 3.52064 20C4.0733 20 4.58621 19.8323 5.01095 19.5355V19.8907ZM24.4769 19.8907H25.7312V14.8447H24.4769V15.2496C24.0392 14.9463 23.5191 14.7842 22.9866 14.7851C21.5435 14.7851 20.3785 15.95 20.3785 17.3932C20.3771 17.736 20.4435 18.0758 20.5741 18.3928C20.7046 18.7098 20.8967 18.9978 21.1392 19.2402C21.3817 19.4826 21.6698 19.6745 21.9869 19.8049C22.304 19.9353 22.6437 20.0016 22.9866 20C23.5392 20 24.0522 19.8323 24.4769 19.5355V19.8907ZM26.1957 18.2513C26.2355 19.2697 27.1048 19.99 28.5554 19.99C29.7414 19.99 30.7188 19.4759 30.7188 18.3408C30.7188 17.5509 30.2742 17.0864 29.2471 16.8877L28.4473 16.7312C27.9332 16.6319 27.578 16.5325 27.578 16.227C27.578 15.8917 27.9232 15.7427 28.3579 15.7427C28.9913 15.7427 29.2471 16.0593 29.267 16.4344H30.5313C30.4617 15.4471 29.6719 14.7851 28.3977 14.7851C27.0849 14.7851 26.3038 15.5054 26.3038 16.4443C26.3038 17.5894 27.2327 17.7769 28.0325 17.926L28.6945 18.0439C29.1689 18.1334 29.3763 18.2712 29.3763 18.5482C29.3763 18.7953 29.1391 19.0412 28.5752 19.0412C27.7556 19.0412 27.4898 18.6165 27.4799 18.2513H26.1957ZM10.8778 13.1259V15.2496C10.4401 14.9463 9.92004 14.7842 9.3875 14.7851C7.94438 14.7851 6.77945 15.95 6.77945 17.3932C6.77945 18.8437 7.94438 20 9.3875 20C9.93891 20 10.4531 19.8323 10.8778 19.5355V19.8907H12.1322V13.1259H10.8778ZM18.61 13.1259V15.2496C18.1723 14.9463 17.6523 14.7842 17.1197 14.7851C15.6779 14.7851 14.5117 15.95 14.5117 17.3932C14.5102 17.736 14.5767 18.0758 14.7072 18.3928C14.8378 18.7098 15.0298 18.9978 15.2723 19.2402C15.5148 19.4826 15.8029 19.6745 16.12 19.8049C16.4371 19.9353 16.7769 20.0016 17.1197 20C17.6724 20 18.1853 19.8323 18.61 19.5355V19.8907H19.8644V13.1259H18.61ZM4.17141 11.6356L5.02089 13.1259H10.8778L8.55665 9.11573L4.17265 11.6344L4.17141 11.6356ZM13.9988 14.3803V13.1259H18.61L13.692 4.61251L9.29684 7.13114L12.7444 13.1259V14.3803H13.9988ZM20.4779 13.1259H26.3435L18.7591 0L14.3738 2.52856L20.4779 13.1259Z" fill="white"/>
</svg>
