<svg width="56" height="20" viewBox="0 0 56 20" fill="none" xmlns="http://www.w3.org/2000/svg">
<path fill-rule="evenodd" clip-rule="evenodd" d="M7.11825 0.886873C3.50218 5.1335 0.0350487 10.3997 0.000282263 14.336C-0.0132583 15.817 0.459565 17.11 1.59368 18.0893C3.22587 19.4997 5.02421 19.9971 6.81377 20C9.42894 20.0036 12.0258 18.9486 14.0591 18.135C17.4834 16.7656 55.336 0.327682 55.336 0.327682C55.7012 0.144701 55.6328 -0.0832923 55.1757 0.030522C54.9913 0.0766332 13.9672 11.1942 13.9672 11.1942C13.1902 11.414 12.3872 11.5289 11.5797 11.536C8.42693 11.5547 5.62146 9.80464 5.64415 6.11684C5.65294 4.67385 6.09465 2.9337 7.11825 0.886873Z" fill="white"/>
</svg>
