<svg width="43" height="20" viewBox="0 0 43 20" fill="none" xmlns="http://www.w3.org/2000/svg">
<path d="M28.0425 0V5.95743H28.4467C30.6752 5.99528 32.8017 6.89735 34.3777 8.4733C35.9536 10.0493 36.8557 12.1758 36.8935 14.4042V19.7872H42.5531V14.234C42.5531 6.38296 36.1701 0 28.3191 0H28.1914H28.0425ZM11.9787 0.0212767V1.0851H13.7659V5.95743H15V1.0851H16.7872V0.0212767H11.9787ZM17.234 0.0212767V5.95743H18.468V3.29786H20.7872V5.95743H22.0212V0.0212767H20.7872V2.27659H18.468V0.0212767H17.234ZM22.5531 0.0212767V5.95743H26.8084V4.91488H23.7021V3.36169H26.4467V2.31914H23.7021V1.06383H26.8084V0.0212767H22.5531ZM8.23402 6.70211C7.44679 6.70211 5.38297 7.04254 5.38297 9.80849C5.38297 12.5744 7.44679 12.9149 8.23402 12.9149C9.02126 12.9149 11.0851 12.5744 11.0851 9.80849C11.0851 7.04254 9.02126 6.70211 8.23402 6.70211ZM0 6.87232V12.7872H1.14893V8.57445H1.17021L3.59574 12.7872H4.82978V6.87232H3.68084V10.9787H3.65957L1.29787 6.87232H0ZM11.5957 6.87232L11.617 12.7872H12.8298V10.4681H14.1063C15.0212 10.4681 15.0638 10.7872 15.0638 11.5957C15.0638 12.2127 15.1063 12.5106 15.1915 12.7872H16.5532V12.6383C16.2978 12.5532 16.2978 12.3404 16.2978 11.4681C16.2978 10.3617 16.0425 10.1702 15.5532 9.95742C16.1276 9.76593 16.468 9.21274 16.468 8.55317C16.468 8.04253 16.1702 6.87232 14.5957 6.87232H11.5957ZM16.7659 6.87232V7.91488H18.5744V12.7872H19.8085V7.91488H21.5957V6.87232H16.7659ZM22.0425 6.87232V12.7872H23.2765V10.1276H25.5744V12.7872H26.8084V6.87232H25.5744V9.10636H23.2765V6.87232H22.0425ZM28.0212 6.87232V12.8085H28.2978C30.2127 12.8085 31.7446 14.3617 31.7446 16.2553V19.7872H35.9786V14.4893C35.9574 10.383 32.6808 7.04254 28.617 6.87232H28.1701H28.0212ZM8.23402 7.76594C8.8936 7.76594 9.82976 8.17019 9.82976 9.82976C9.82976 11.4893 8.8936 11.8936 8.23402 11.8936C7.57445 11.8936 6.61701 11.4893 6.61701 9.82976C6.61701 8.17019 7.57445 7.76594 8.23402 7.76594ZM12.8085 7.8936H14.3404C15.0638 7.8936 15.2127 8.34041 15.2127 8.65955C15.2127 9.23402 14.8936 9.46806 14.2553 9.46806H12.8085V7.8936ZM19.3404 13.5744C17.7872 13.5744 16.5532 14.6595 16.5532 16.7872C16.5532 18.8936 17.7021 19.9787 19.3191 19.9787C20.851 19.9787 21.7021 19.0638 21.9574 17.7446H20.6808C20.5319 18.4893 20.0425 18.8936 19.3404 18.8936C18.2553 18.8936 17.8297 17.9149 17.8297 16.8298C17.8297 15.1063 18.7234 14.7021 19.3404 14.7021C20.3829 14.7021 20.5744 15.3829 20.6808 15.7446V15.7234H21.9574C21.8936 14.8298 21.1489 13.5744 19.3404 13.5744ZM7.46807 13.7234V19.8085H8.72338V17.2553H11.4042V16.1702H8.72338V14.8085H11.7872V13.7234H7.46807ZM13.1915 13.7234L11.0213 19.8085H12.3617L12.7659 18.5531H15.0425L15.4255 19.8085H16.8085L14.6595 13.7234H13.1915ZM22.468 13.7234V19.8085H26.8297V18.7234H23.6382V17.1489H26.468V16.0851H23.6382V14.8085H26.8297V13.7234H22.468ZM28.0425 13.7446V19.8297H30.8723V16.2978C30.8723 14.8936 29.7233 13.7446 28.3191 13.7446H28.0425ZM13.8936 15.1063H13.9149L14.6595 17.5106H13.1064L13.8936 15.1063ZM5.1702 16.7234C4.95347 16.7213 4.73846 16.762 4.53755 16.8434C4.33664 16.9247 4.15379 17.0449 3.99955 17.1972C3.8453 17.3495 3.72269 17.5308 3.63878 17.7306C3.55487 17.9304 3.51132 18.1449 3.51063 18.3617C3.51063 19.2978 4.27659 20 5.1702 20C5.3858 20.0016 5.59959 19.9604 5.7991 19.8786C5.99861 19.7969 6.17987 19.6763 6.33233 19.5238C6.48479 19.3713 6.60541 19.1901 6.68715 18.9906C6.7689 18.791 6.81015 18.5773 6.80849 18.3617C6.81015 18.1461 6.7689 17.9323 6.68715 17.7328C6.60541 17.5332 6.48479 17.352 6.33233 17.1995C6.17987 17.0471 5.99861 16.9265 5.7991 16.8447C5.59959 16.763 5.3858 16.7217 5.1702 16.7234ZM5.1702 16.9787C5.91488 16.9787 6.51062 17.5744 6.51062 18.3617C6.51062 19.1702 5.93616 19.7659 5.1702 19.7659C4.40424 19.7659 3.8085 19.1489 3.8085 18.3617C3.8085 17.5744 4.40424 16.9787 5.1702 16.9787ZM4.5319 17.4042V19.3404H4.82978V18.5106H5.14892L5.68084 19.3404H5.99999L5.4468 18.4893C5.74467 18.4468 5.95743 18.2978 5.95743 17.9574C5.95743 17.5744 5.72339 17.4042 5.27658 17.4042H4.5319ZM4.82978 17.6383H5.23403C5.4468 17.6383 5.65956 17.6808 5.65956 17.9361C5.65956 18.234 5.40424 18.2553 5.14892 18.2553H4.82978V17.6383Z" fill="white"/>
</svg>
